<mxfile host="app.diagrams.net" agent="Mozilla/5.0 (Macintosh; Intel Mac OS X 10_15_7) AppleWebKit/537.36 (KHTML, like Gecko) Chrome/136.0.0.0 Safari/537.36" version="27.0.5">
  <diagram id="82LenIVilk81iTbLiL3j" name="Pagina-1">
    <mxGraphModel dx="586" dy="395" grid="1" gridSize="10" guides="1" tooltips="1" connect="1" arrows="1" fold="1" page="1" pageScale="1" pageWidth="850" pageHeight="1100" math="0" shadow="0">
      <root>
        <mxCell id="0" />
        <mxCell id="1" parent="0" />
        <mxCell id="GTgxMWZff30Q3cKS9bnM-1" value="" style="endArrow=none;html=1;rounded=0;exitX=1;exitY=0.5;exitDx=0;exitDy=0;entryX=0;entryY=0.5;entryDx=0;entryDy=0;" parent="1" source="GTgxMWZff30Q3cKS9bnM-39" target="GTgxMWZff30Q3cKS9bnM-40" edge="1">
          <mxGeometry width="50" height="50" relative="1" as="geometry">
            <mxPoint x="838" y="390" as="sourcePoint" />
            <mxPoint x="888" y="340" as="targetPoint" />
          </mxGeometry>
        </mxCell>
        <mxCell id="GTgxMWZff30Q3cKS9bnM-2" value="" style="endArrow=none;html=1;rounded=0;entryX=0;entryY=0.5;entryDx=0;entryDy=0;exitX=1;exitY=0.5;exitDx=0;exitDy=0;" parent="1" source="GTgxMWZff30Q3cKS9bnM-118" target="GTgxMWZff30Q3cKS9bnM-39" edge="1">
          <mxGeometry width="50" height="50" relative="1" as="geometry">
            <mxPoint x="648" y="390" as="sourcePoint" />
            <mxPoint x="698" y="340" as="targetPoint" />
          </mxGeometry>
        </mxCell>
        <mxCell id="GTgxMWZff30Q3cKS9bnM-3" value="" style="endArrow=none;html=1;rounded=0;exitX=0.5;exitY=0;exitDx=0;exitDy=0;entryX=0.5;entryY=1;entryDx=0;entryDy=0;" parent="1" source="GTgxMWZff30Q3cKS9bnM-38" target="GTgxMWZff30Q3cKS9bnM-118" edge="1">
          <mxGeometry width="50" height="50" relative="1" as="geometry">
            <mxPoint x="648" y="390" as="sourcePoint" />
            <mxPoint x="698" y="340" as="targetPoint" />
          </mxGeometry>
        </mxCell>
        <mxCell id="GTgxMWZff30Q3cKS9bnM-4" value="" style="endArrow=none;html=1;rounded=0;exitX=0.5;exitY=0;exitDx=0;exitDy=0;entryX=0.5;entryY=1;entryDx=0;entryDy=0;" parent="1" source="GTgxMWZff30Q3cKS9bnM-117" target="GTgxMWZff30Q3cKS9bnM-38" edge="1">
          <mxGeometry width="50" height="50" relative="1" as="geometry">
            <mxPoint x="648" y="470" as="sourcePoint" />
            <mxPoint x="698" y="420" as="targetPoint" />
          </mxGeometry>
        </mxCell>
        <mxCell id="GTgxMWZff30Q3cKS9bnM-5" value="" style="endArrow=none;html=1;rounded=0;exitX=1;exitY=0.5;exitDx=0;exitDy=0;entryX=0;entryY=0.5;entryDx=0;entryDy=0;" parent="1" source="GTgxMWZff30Q3cKS9bnM-117" target="GTgxMWZff30Q3cKS9bnM-37" edge="1">
          <mxGeometry width="50" height="50" relative="1" as="geometry">
            <mxPoint x="728" y="520" as="sourcePoint" />
            <mxPoint x="778" y="470" as="targetPoint" />
          </mxGeometry>
        </mxCell>
        <mxCell id="GTgxMWZff30Q3cKS9bnM-6" value="" style="endArrow=none;html=1;rounded=0;exitX=1;exitY=0.5;exitDx=0;exitDy=0;entryX=0;entryY=0.5;entryDx=0;entryDy=0;" parent="1" source="GTgxMWZff30Q3cKS9bnM-37" target="GTgxMWZff30Q3cKS9bnM-36" edge="1">
          <mxGeometry width="50" height="50" relative="1" as="geometry">
            <mxPoint x="838" y="520" as="sourcePoint" />
            <mxPoint x="888" y="470" as="targetPoint" />
          </mxGeometry>
        </mxCell>
        <mxCell id="GTgxMWZff30Q3cKS9bnM-7" value="" style="endArrow=none;html=1;rounded=0;exitX=1;exitY=0.5;exitDx=0;exitDy=0;entryX=0;entryY=0.5;entryDx=0;entryDy=0;" parent="1" source="GTgxMWZff30Q3cKS9bnM-36" target="GTgxMWZff30Q3cKS9bnM-35" edge="1">
          <mxGeometry width="50" height="50" relative="1" as="geometry">
            <mxPoint x="978" y="520" as="sourcePoint" />
            <mxPoint x="1028" y="470" as="targetPoint" />
          </mxGeometry>
        </mxCell>
        <mxCell id="GTgxMWZff30Q3cKS9bnM-8" value="" style="endArrow=none;html=1;rounded=0;exitX=1;exitY=0.5;exitDx=0;exitDy=0;entryX=0;entryY=0.5;entryDx=0;entryDy=0;" parent="1" source="GTgxMWZff30Q3cKS9bnM-35" target="GTgxMWZff30Q3cKS9bnM-41" edge="1">
          <mxGeometry width="50" height="50" relative="1" as="geometry">
            <mxPoint x="1108" y="520" as="sourcePoint" />
            <mxPoint x="1157.9999999999998" y="470" as="targetPoint" />
          </mxGeometry>
        </mxCell>
        <mxCell id="GTgxMWZff30Q3cKS9bnM-9" value="" style="endArrow=none;html=1;rounded=0;exitX=0.5;exitY=0;exitDx=0;exitDy=0;entryX=0.5;entryY=1;entryDx=0;entryDy=0;" parent="1" target="GTgxMWZff30Q3cKS9bnM-41" edge="1">
          <mxGeometry width="50" height="50" relative="1" as="geometry">
            <mxPoint x="1167.9999999999998" y="585" as="sourcePoint" />
            <mxPoint x="1207.9999999999998" y="540" as="targetPoint" />
          </mxGeometry>
        </mxCell>
        <mxCell id="GTgxMWZff30Q3cKS9bnM-10" value="" style="endArrow=none;html=1;rounded=0;exitX=0.5;exitY=0;exitDx=0;exitDy=0;entryX=0.5;entryY=1;entryDx=0;entryDy=0;" parent="1" target="GTgxMWZff30Q3cKS9bnM-34" edge="1">
          <mxGeometry width="50" height="50" relative="1" as="geometry">
            <mxPoint x="888" y="665" as="sourcePoint" />
            <mxPoint x="1028" y="545" as="targetPoint" />
          </mxGeometry>
        </mxCell>
        <mxCell id="GTgxMWZff30Q3cKS9bnM-11" value="" style="endArrow=none;html=1;rounded=0;exitX=0.5;exitY=0;exitDx=0;exitDy=0;entryX=0.5;entryY=1;entryDx=0;entryDy=0;" parent="1" source="GTgxMWZff30Q3cKS9bnM-34" target="GTgxMWZff30Q3cKS9bnM-36" edge="1">
          <mxGeometry width="50" height="50" relative="1" as="geometry">
            <mxPoint x="978" y="580" as="sourcePoint" />
            <mxPoint x="1028" y="530" as="targetPoint" />
          </mxGeometry>
        </mxCell>
        <mxCell id="GTgxMWZff30Q3cKS9bnM-12" value="PASEGGERI" style="rounded=0;whiteSpace=wrap;html=1;fillColor=#CCE5FF;strokeColor=#66B2FF;container=0;" parent="1" vertex="1">
          <mxGeometry x="778" y="240" width="100" height="40" as="geometry" />
        </mxCell>
        <mxCell id="GTgxMWZff30Q3cKS9bnM-13" value="MERCI" style="rounded=0;whiteSpace=wrap;html=1;fillColor=#CCE5FF;strokeColor=#66B2FF;container=0;" parent="1" vertex="1">
          <mxGeometry x="898" y="240" width="100" height="40" as="geometry" />
        </mxCell>
        <mxCell id="GTgxMWZff30Q3cKS9bnM-14" value="" style="strokeWidth=2;html=1;shape=mxgraph.flowchart.annotation_2;align=left;labelPosition=right;pointerEvents=1;rotation=-90;container=0;" parent="1" vertex="1">
          <mxGeometry x="863" y="255" width="50" height="100" as="geometry" />
        </mxCell>
        <mxCell id="GTgxMWZff30Q3cKS9bnM-15" value="(t,e)" style="text;html=1;align=center;verticalAlign=middle;whiteSpace=wrap;rounded=0;fontColor=#FF3333;" parent="1" vertex="1">
          <mxGeometry x="875" y="303" width="60" height="30" as="geometry" />
        </mxCell>
        <mxCell id="GTgxMWZff30Q3cKS9bnM-17" value="(1,1)" style="text;html=1;align=center;verticalAlign=middle;whiteSpace=wrap;rounded=0;fontColor=#FF3333;" parent="1" vertex="1">
          <mxGeometry x="795.4099999999999" y="324" width="60" height="30" as="geometry" />
        </mxCell>
        <mxCell id="GTgxMWZff30Q3cKS9bnM-18" value="(1,1)" style="text;html=1;align=center;verticalAlign=middle;whiteSpace=wrap;rounded=0;fontColor=#FF3333;" parent="1" vertex="1">
          <mxGeometry x="648" y="324" width="60" height="30" as="geometry" />
        </mxCell>
        <mxCell id="GTgxMWZff30Q3cKS9bnM-19" value="(1,1)" style="text;html=1;align=center;verticalAlign=middle;whiteSpace=wrap;rounded=0;fontColor=#FF3333;" parent="1" vertex="1">
          <mxGeometry x="597" y="366" width="60" height="30" as="geometry" />
        </mxCell>
        <mxCell id="GTgxMWZff30Q3cKS9bnM-20" value="(1,10)" style="text;html=1;align=center;verticalAlign=middle;whiteSpace=wrap;rounded=0;fontColor=#FF3333;" parent="1" vertex="1">
          <mxGeometry x="598" y="462" width="60" height="30" as="geometry" />
        </mxCell>
        <mxCell id="GTgxMWZff30Q3cKS9bnM-21" value="(1,1)" style="text;html=1;align=center;verticalAlign=middle;whiteSpace=wrap;rounded=0;fontColor=#FF3333;" parent="1" vertex="1">
          <mxGeometry x="648" y="485" width="60" height="30" as="geometry" />
        </mxCell>
        <mxCell id="GTgxMWZff30Q3cKS9bnM-22" value="(1,1)" style="text;html=1;align=center;verticalAlign=middle;whiteSpace=wrap;rounded=0;fontColor=#FF3333;" parent="1" vertex="1">
          <mxGeometry x="789" y="483" width="60" height="30" as="geometry" />
        </mxCell>
        <mxCell id="GTgxMWZff30Q3cKS9bnM-23" value="(1,1)" style="text;html=1;align=center;verticalAlign=middle;whiteSpace=wrap;rounded=0;fontColor=#FF3333;" parent="1" vertex="1">
          <mxGeometry x="875" y="526" width="60" height="30" as="geometry" />
        </mxCell>
        <mxCell id="GTgxMWZff30Q3cKS9bnM-24" value="(1,N)" style="text;html=1;align=center;verticalAlign=middle;whiteSpace=wrap;rounded=0;fontColor=#FF3333;" parent="1" vertex="1">
          <mxGeometry x="878" y="638" width="60" height="30" as="geometry" />
        </mxCell>
        <mxCell id="GTgxMWZff30Q3cKS9bnM-25" value="(1,1)" style="text;html=1;align=center;verticalAlign=middle;whiteSpace=wrap;rounded=0;fontColor=#FF3333;" parent="1" vertex="1">
          <mxGeometry x="927" y="483" width="60" height="30" as="geometry" />
        </mxCell>
        <mxCell id="GTgxMWZff30Q3cKS9bnM-26" value="(1,1)" style="text;html=1;align=center;verticalAlign=middle;whiteSpace=wrap;rounded=0;fontColor=#FF3333;" parent="1" vertex="1">
          <mxGeometry x="1070" y="483" width="60" height="30" as="geometry" />
        </mxCell>
        <mxCell id="GTgxMWZff30Q3cKS9bnM-27" value="(1,1)" style="text;html=1;align=center;verticalAlign=middle;whiteSpace=wrap;rounded=0;fontColor=#FF3333;" parent="1" vertex="1">
          <mxGeometry x="1156.9999999999998" y="525" width="60" height="30" as="geometry" />
        </mxCell>
        <mxCell id="GTgxMWZff30Q3cKS9bnM-34" value="ISTANZA" style="rhombus;whiteSpace=wrap;html=1;fillColor=#FFFFCC;strokeColor=#FFCC99;" parent="1" vertex="1">
          <mxGeometry x="838" y="585" width="100" height="40" as="geometry" />
        </mxCell>
        <mxCell id="GTgxMWZff30Q3cKS9bnM-35" value="INCLUDE" style="rhombus;whiteSpace=wrap;html=1;fillColor=#FFFFCC;strokeColor=#FFCC99;" parent="1" vertex="1">
          <mxGeometry x="978" y="490" width="100" height="40" as="geometry" />
        </mxCell>
        <mxCell id="GTgxMWZff30Q3cKS9bnM-36" value="PRODOTTO" style="rounded=0;whiteSpace=wrap;html=1;fillColor=#CCE5FF;strokeColor=#66B2FF;" parent="1" vertex="1">
          <mxGeometry x="838" y="490" width="100" height="40" as="geometry" />
        </mxCell>
        <mxCell id="GTgxMWZff30Q3cKS9bnM-37" value="INSTALLA" style="rhombus;whiteSpace=wrap;html=1;fillColor=#FFFFCC;strokeColor=#FFCC99;" parent="1" vertex="1">
          <mxGeometry x="698" y="490" width="100" height="40" as="geometry" />
        </mxCell>
        <mxCell id="GTgxMWZff30Q3cKS9bnM-38" value="PARTE DI" style="rhombus;whiteSpace=wrap;html=1;fillColor=#FFFFCC;strokeColor=#FFCC99;" parent="1" vertex="1">
          <mxGeometry x="558" y="410" width="100" height="40" as="geometry" />
        </mxCell>
        <mxCell id="GTgxMWZff30Q3cKS9bnM-39" value="LAVORA SU" style="rhombus;whiteSpace=wrap;html=1;fillColor=#FFFFCC;strokeColor=#FFCC99;" parent="1" vertex="1">
          <mxGeometry x="698" y="330" width="100" height="40" as="geometry" />
        </mxCell>
        <mxCell id="GTgxMWZff30Q3cKS9bnM-40" value="TRATTA" style="rounded=0;whiteSpace=wrap;html=1;fillColor=#CCE5FF;strokeColor=#66B2FF;" parent="1" vertex="1">
          <mxGeometry x="838" y="330" width="100" height="40" as="geometry" />
        </mxCell>
        <mxCell id="GTgxMWZff30Q3cKS9bnM-41" value="ORDINE" style="rounded=0;whiteSpace=wrap;html=1;fillColor=#CCE5FF;strokeColor=#66B2FF;" parent="1" vertex="1">
          <mxGeometry x="1117.9999999999998" y="490" width="100" height="40" as="geometry" />
        </mxCell>
        <mxCell id="GTgxMWZff30Q3cKS9bnM-42" value="" style="endArrow=none;html=1;rounded=0;exitX=0.5;exitY=0;exitDx=0;exitDy=0;entryX=0.5;entryY=1;entryDx=0;entryDy=0;" parent="1" source="GTgxMWZff30Q3cKS9bnM-118" target="GTgxMWZff30Q3cKS9bnM-130" edge="1">
          <mxGeometry width="50" height="50" relative="1" as="geometry">
            <mxPoint x="618" y="260" as="sourcePoint" />
            <mxPoint x="608" y="300" as="targetPoint" />
          </mxGeometry>
        </mxCell>
        <mxCell id="GTgxMWZff30Q3cKS9bnM-46" value="Inizio&lt;div&gt;tratta&lt;/div&gt;" style="text;html=1;align=center;verticalAlign=middle;whiteSpace=wrap;rounded=0;" parent="1" vertex="1">
          <mxGeometry x="918" y="400" width="40" height="30" as="geometry" />
        </mxCell>
        <mxCell id="GTgxMWZff30Q3cKS9bnM-47" value="Fine&lt;div&gt;tratta&lt;/div&gt;" style="text;html=1;align=center;verticalAlign=middle;whiteSpace=wrap;rounded=0;" parent="1" vertex="1">
          <mxGeometry x="968" y="354" width="40" height="30" as="geometry" />
        </mxCell>
        <mxCell id="GTgxMWZff30Q3cKS9bnM-48" value="" style="endArrow=none;html=1;rounded=0;exitX=1;exitY=0.75;exitDx=0;exitDy=0;" parent="1" source="GTgxMWZff30Q3cKS9bnM-40" edge="1">
          <mxGeometry width="50" height="50" relative="1" as="geometry">
            <mxPoint x="948" y="355" as="sourcePoint" />
            <mxPoint x="958" y="360" as="targetPoint" />
          </mxGeometry>
        </mxCell>
        <mxCell id="GTgxMWZff30Q3cKS9bnM-49" value="" style="ellipse;whiteSpace=wrap;html=1;aspect=fixed;fillColor=none;strokeColor=default;rotation=90;" parent="1" vertex="1">
          <mxGeometry x="958" y="355" width="10" height="10" as="geometry" />
        </mxCell>
        <mxCell id="GTgxMWZff30Q3cKS9bnM-50" value="" style="ellipse;whiteSpace=wrap;html=1;aspect=fixed;fillColor=none;strokeColor=default;rotation=90;" parent="1" vertex="1">
          <mxGeometry x="958" y="335" width="10" height="10" as="geometry" />
        </mxCell>
        <mxCell id="GTgxMWZff30Q3cKS9bnM-51" value="" style="endArrow=none;html=1;rounded=0;exitX=1;exitY=0.75;exitDx=0;exitDy=0;" parent="1" edge="1">
          <mxGeometry width="50" height="50" relative="1" as="geometry">
            <mxPoint x="938" y="340" as="sourcePoint" />
            <mxPoint x="958" y="340" as="targetPoint" />
          </mxGeometry>
        </mxCell>
        <mxCell id="GTgxMWZff30Q3cKS9bnM-52" value="lunghezza tratta" style="text;html=1;align=center;verticalAlign=middle;whiteSpace=wrap;rounded=0;" parent="1" vertex="1">
          <mxGeometry x="968" y="315" width="40" height="30" as="geometry" />
        </mxCell>
        <mxCell id="GTgxMWZff30Q3cKS9bnM-53" value="" style="ellipse;whiteSpace=wrap;html=1;aspect=fixed;fillColor=none;strokeColor=default;rotation=-180;" parent="1" vertex="1">
          <mxGeometry x="908" y="390" width="10" height="10" as="geometry" />
        </mxCell>
        <mxCell id="GTgxMWZff30Q3cKS9bnM-54" value="" style="endArrow=none;html=1;rounded=0;entryX=0.5;entryY=1;entryDx=0;entryDy=0;" parent="1" target="GTgxMWZff30Q3cKS9bnM-53" edge="1">
          <mxGeometry width="50" height="50" relative="1" as="geometry">
            <mxPoint x="913" y="370" as="sourcePoint" />
            <mxPoint x="843" y="390" as="targetPoint" />
          </mxGeometry>
        </mxCell>
        <mxCell id="GTgxMWZff30Q3cKS9bnM-55" value="" style="ellipse;whiteSpace=wrap;html=1;aspect=fixed;fillColor=light-dark(#000000,#FFFFFF);strokeColor=default;rotation=-180;" parent="1" vertex="1">
          <mxGeometry x="879.68" y="375" width="10" height="10" as="geometry" />
        </mxCell>
        <mxCell id="GTgxMWZff30Q3cKS9bnM-56" value="" style="endArrow=none;html=1;rounded=0;" parent="1" edge="1">
          <mxGeometry width="50" height="50" relative="1" as="geometry">
            <mxPoint x="950" y="350" as="sourcePoint" />
            <mxPoint x="890" y="380" as="targetPoint" />
            <Array as="points">
              <mxPoint x="950" y="380" />
            </Array>
          </mxGeometry>
        </mxCell>
        <mxCell id="GTgxMWZff30Q3cKS9bnM-57" value="(1,1)" style="text;html=1;align=center;verticalAlign=middle;whiteSpace=wrap;rounded=0;fontColor=#FF3333;" parent="1" vertex="1">
          <mxGeometry x="597" y="303" width="60" height="30" as="geometry" />
        </mxCell>
        <mxCell id="GTgxMWZff30Q3cKS9bnM-58" value="" style="group" parent="1" vertex="1" connectable="0">
          <mxGeometry x="1065" y="440" width="245" height="145" as="geometry" />
        </mxCell>
        <mxCell id="GTgxMWZff30Q3cKS9bnM-59" value="" style="group" parent="GTgxMWZff30Q3cKS9bnM-58" vertex="1" connectable="0">
          <mxGeometry x="108" y="90" width="60" height="55" as="geometry" />
        </mxCell>
        <mxCell id="GTgxMWZff30Q3cKS9bnM-60" value="Prezzo" style="text;html=1;align=center;verticalAlign=middle;resizable=0;points=[];autosize=1;strokeColor=none;fillColor=none;container=0;" parent="GTgxMWZff30Q3cKS9bnM-59" vertex="1">
          <mxGeometry y="25" width="60" height="30" as="geometry" />
        </mxCell>
        <mxCell id="GTgxMWZff30Q3cKS9bnM-61" value="" style="group" parent="GTgxMWZff30Q3cKS9bnM-59" vertex="1" connectable="0">
          <mxGeometry x="25" width="10" height="26" as="geometry" />
        </mxCell>
        <mxCell id="GTgxMWZff30Q3cKS9bnM-62" value="" style="ellipse;whiteSpace=wrap;html=1;aspect=fixed;fillColor=none;strokeColor=default;rotation=-180;container=0;" parent="GTgxMWZff30Q3cKS9bnM-61" vertex="1">
          <mxGeometry y="16" width="10" height="10" as="geometry" />
        </mxCell>
        <mxCell id="GTgxMWZff30Q3cKS9bnM-63" value="" style="endArrow=none;html=1;rounded=0;entryX=0.5;entryY=1;entryDx=0;entryDy=0;" parent="GTgxMWZff30Q3cKS9bnM-61" target="GTgxMWZff30Q3cKS9bnM-62" edge="1">
          <mxGeometry width="50" height="50" relative="1" as="geometry">
            <mxPoint x="5" as="sourcePoint" />
            <mxPoint x="-65" y="20" as="targetPoint" />
          </mxGeometry>
        </mxCell>
        <mxCell id="GTgxMWZff30Q3cKS9bnM-64" value="" style="group" parent="GTgxMWZff30Q3cKS9bnM-58" vertex="1" connectable="0">
          <mxGeometry x="28" y="90" width="80" height="55" as="geometry" />
        </mxCell>
        <mxCell id="GTgxMWZff30Q3cKS9bnM-65" value="ID_Cliente" style="text;html=1;align=center;verticalAlign=middle;resizable=0;points=[];autosize=1;strokeColor=none;fillColor=none;container=0;" parent="GTgxMWZff30Q3cKS9bnM-64" vertex="1">
          <mxGeometry y="25" width="80" height="30" as="geometry" />
        </mxCell>
        <mxCell id="GTgxMWZff30Q3cKS9bnM-66" value="" style="group" parent="GTgxMWZff30Q3cKS9bnM-64" vertex="1" connectable="0">
          <mxGeometry x="35" width="10" height="26" as="geometry" />
        </mxCell>
        <mxCell id="GTgxMWZff30Q3cKS9bnM-67" value="" style="ellipse;whiteSpace=wrap;html=1;aspect=fixed;fillColor=#FFFFFF;strokeColor=default;rotation=-180;container=0;" parent="GTgxMWZff30Q3cKS9bnM-66" vertex="1">
          <mxGeometry y="16" width="10" height="10" as="geometry" />
        </mxCell>
        <mxCell id="GTgxMWZff30Q3cKS9bnM-68" value="" style="endArrow=none;html=1;rounded=0;entryX=0.5;entryY=1;entryDx=0;entryDy=0;" parent="GTgxMWZff30Q3cKS9bnM-66" target="GTgxMWZff30Q3cKS9bnM-67" edge="1">
          <mxGeometry width="50" height="50" relative="1" as="geometry">
            <mxPoint x="5" as="sourcePoint" />
            <mxPoint x="-66" y="9" as="targetPoint" />
          </mxGeometry>
        </mxCell>
        <mxCell id="GTgxMWZff30Q3cKS9bnM-69" value="" style="endArrow=none;html=1;rounded=0;" parent="GTgxMWZff30Q3cKS9bnM-66" edge="1">
          <mxGeometry width="50" height="50" relative="1" as="geometry">
            <mxPoint y="10" as="sourcePoint" />
            <mxPoint x="10" y="10" as="targetPoint" />
          </mxGeometry>
        </mxCell>
        <mxCell id="GTgxMWZff30Q3cKS9bnM-70" value="" style="group" parent="GTgxMWZff30Q3cKS9bnM-58" vertex="1" connectable="0">
          <mxGeometry width="90" height="50" as="geometry" />
        </mxCell>
        <mxCell id="GTgxMWZff30Q3cKS9bnM-71" value="ID_Prodotto" style="text;html=1;align=center;verticalAlign=middle;resizable=0;points=[];autosize=1;strokeColor=none;fillColor=none;container=0;" parent="GTgxMWZff30Q3cKS9bnM-70" vertex="1">
          <mxGeometry width="90" height="30" as="geometry" />
        </mxCell>
        <mxCell id="GTgxMWZff30Q3cKS9bnM-72" value="" style="group" parent="GTgxMWZff30Q3cKS9bnM-70" vertex="1" connectable="0">
          <mxGeometry x="63" y="26" width="10" height="24" as="geometry" />
        </mxCell>
        <mxCell id="GTgxMWZff30Q3cKS9bnM-73" value="" style="ellipse;whiteSpace=wrap;html=1;aspect=fixed;fillColor=#FFFFFF;strokeColor=default;rotation=0;container=0;" parent="GTgxMWZff30Q3cKS9bnM-72" vertex="1">
          <mxGeometry width="10" height="10" as="geometry" />
        </mxCell>
        <mxCell id="GTgxMWZff30Q3cKS9bnM-74" value="" style="endArrow=none;html=1;rounded=0;entryX=0.5;entryY=1;entryDx=0;entryDy=0;" parent="GTgxMWZff30Q3cKS9bnM-72" target="GTgxMWZff30Q3cKS9bnM-73" edge="1">
          <mxGeometry width="50" height="50" relative="1" as="geometry">
            <mxPoint x="5" y="24" as="sourcePoint" />
            <mxPoint x="76" y="15" as="targetPoint" />
          </mxGeometry>
        </mxCell>
        <mxCell id="GTgxMWZff30Q3cKS9bnM-75" value="" style="endArrow=none;html=1;rounded=0;" parent="GTgxMWZff30Q3cKS9bnM-72" edge="1">
          <mxGeometry width="50" height="50" relative="1" as="geometry">
            <mxPoint x="10" y="15" as="sourcePoint" />
            <mxPoint y="15" as="targetPoint" />
          </mxGeometry>
        </mxCell>
        <mxCell id="GTgxMWZff30Q3cKS9bnM-76" value="" style="group" parent="GTgxMWZff30Q3cKS9bnM-58" vertex="1" connectable="0">
          <mxGeometry x="152" y="6" width="93" height="45" as="geometry" />
        </mxCell>
        <mxCell id="GTgxMWZff30Q3cKS9bnM-77" value="ID_Ordine" style="text;html=1;align=center;verticalAlign=middle;resizable=0;points=[];autosize=1;strokeColor=none;fillColor=none;container=0;" parent="GTgxMWZff30Q3cKS9bnM-76" vertex="1">
          <mxGeometry x="13" width="80" height="30" as="geometry" />
        </mxCell>
        <mxCell id="GTgxMWZff30Q3cKS9bnM-78" value="" style="group" parent="GTgxMWZff30Q3cKS9bnM-76" vertex="1" connectable="0">
          <mxGeometry y="19.928932188134524" width="25.071067811865532" height="25.071067811865476" as="geometry" />
        </mxCell>
        <mxCell id="GTgxMWZff30Q3cKS9bnM-79" value="" style="ellipse;whiteSpace=wrap;html=1;aspect=fixed;fillColor=light-dark(#000000,#FFFFFF);strokeColor=default;rotation=45;container=0;" parent="GTgxMWZff30Q3cKS9bnM-78" vertex="1">
          <mxGeometry x="13" y="2.0710678118654755" width="10" height="10" as="geometry" />
        </mxCell>
        <mxCell id="GTgxMWZff30Q3cKS9bnM-80" value="" style="endArrow=none;html=1;rounded=0;entryX=0.5;entryY=1;entryDx=0;entryDy=0;" parent="GTgxMWZff30Q3cKS9bnM-78" target="GTgxMWZff30Q3cKS9bnM-79" edge="1">
          <mxGeometry width="50" height="50" relative="1" as="geometry">
            <mxPoint y="25.071067811865476" as="sourcePoint" />
            <mxPoint x="64" y="61.071067811865476" as="targetPoint" />
          </mxGeometry>
        </mxCell>
        <mxCell id="GTgxMWZff30Q3cKS9bnM-81" value="" style="group" parent="GTgxMWZff30Q3cKS9bnM-58" vertex="1" connectable="0">
          <mxGeometry x="100" y="2" width="70" height="48" as="geometry" />
        </mxCell>
        <mxCell id="GTgxMWZff30Q3cKS9bnM-82" value="Quantità" style="text;html=1;align=center;verticalAlign=middle;resizable=0;points=[];autosize=1;strokeColor=none;fillColor=none;container=0;" parent="GTgxMWZff30Q3cKS9bnM-81" vertex="1">
          <mxGeometry width="70" height="30" as="geometry" />
        </mxCell>
        <mxCell id="GTgxMWZff30Q3cKS9bnM-83" value="" style="group" parent="GTgxMWZff30Q3cKS9bnM-81" vertex="1" connectable="0">
          <mxGeometry x="33" y="24" width="10" height="24" as="geometry" />
        </mxCell>
        <mxCell id="GTgxMWZff30Q3cKS9bnM-84" value="" style="ellipse;whiteSpace=wrap;html=1;aspect=fixed;fillColor=none;strokeColor=default;container=0;" parent="GTgxMWZff30Q3cKS9bnM-83" vertex="1">
          <mxGeometry width="10" height="10" as="geometry" />
        </mxCell>
        <mxCell id="GTgxMWZff30Q3cKS9bnM-85" value="" style="endArrow=none;html=1;rounded=0;entryX=0.5;entryY=1;entryDx=0;entryDy=0;" parent="GTgxMWZff30Q3cKS9bnM-83" target="GTgxMWZff30Q3cKS9bnM-84" edge="1">
          <mxGeometry width="50" height="50" relative="1" as="geometry">
            <mxPoint x="5" y="24" as="sourcePoint" />
            <mxPoint x="75" y="4" as="targetPoint" />
          </mxGeometry>
        </mxCell>
        <mxCell id="GTgxMWZff30Q3cKS9bnM-86" value="" style="group" parent="1" vertex="1" connectable="0">
          <mxGeometry x="1053" y="350" width="220" height="90" as="geometry" />
        </mxCell>
        <mxCell id="GTgxMWZff30Q3cKS9bnM-87" value="" style="group" parent="GTgxMWZff30Q3cKS9bnM-86" vertex="1" connectable="0">
          <mxGeometry width="220" height="90" as="geometry" />
        </mxCell>
        <mxCell id="GTgxMWZff30Q3cKS9bnM-88" value="" style="strokeWidth=2;html=1;shape=mxgraph.flowchart.annotation_2;align=left;labelPosition=right;pointerEvents=1;rotation=-90;container=0;" parent="GTgxMWZff30Q3cKS9bnM-87" vertex="1">
          <mxGeometry x="90" y="15" width="50" height="100" as="geometry" />
        </mxCell>
        <mxCell id="GTgxMWZff30Q3cKS9bnM-89" value="PASSATO" style="rounded=0;whiteSpace=wrap;html=1;fillColor=#CCE5FF;strokeColor=#66B2FF;container=0;" parent="GTgxMWZff30Q3cKS9bnM-87" vertex="1">
          <mxGeometry x="120" width="100" height="40" as="geometry" />
        </mxCell>
        <mxCell id="GTgxMWZff30Q3cKS9bnM-90" value="PRESENTE" style="rounded=0;whiteSpace=wrap;html=1;fillColor=#CCE5FF;strokeColor=#66B2FF;container=0;" parent="GTgxMWZff30Q3cKS9bnM-87" vertex="1">
          <mxGeometry width="100" height="40" as="geometry" />
        </mxCell>
        <mxCell id="GTgxMWZff30Q3cKS9bnM-207" value="(t,e)" style="text;html=1;align=center;verticalAlign=middle;whiteSpace=wrap;rounded=0;labelBackgroundColor=none;fontColor=#FF3333;" parent="GTgxMWZff30Q3cKS9bnM-87" vertex="1">
          <mxGeometry x="99.99999999999977" y="60" width="60" height="30" as="geometry" />
        </mxCell>
        <mxCell id="GTgxMWZff30Q3cKS9bnM-91" value="" style="endArrow=none;html=1;rounded=0;fontFamily=Helvetica;fontSize=12;fontColor=default;entryX=0.5;entryY=0;entryDx=0;entryDy=0;exitX=0;exitY=0.5;exitDx=0;exitDy=0;exitPerimeter=0;strokeWidth=2;" parent="1" source="GTgxMWZff30Q3cKS9bnM-88" target="GTgxMWZff30Q3cKS9bnM-41" edge="1">
          <mxGeometry width="50" height="50" relative="1" as="geometry">
            <mxPoint x="1158" y="460" as="sourcePoint" />
            <mxPoint x="1208" y="410" as="targetPoint" />
          </mxGeometry>
        </mxCell>
        <mxCell id="GTgxMWZff30Q3cKS9bnM-92" value="ID_Installatore" style="text;html=1;align=center;verticalAlign=middle;resizable=0;points=[];autosize=1;strokeColor=none;fillColor=none;container=0;" parent="1" vertex="1">
          <mxGeometry x="468" y="289" width="100" height="30" as="geometry" />
        </mxCell>
        <mxCell id="GTgxMWZff30Q3cKS9bnM-93" value="" style="ellipse;whiteSpace=wrap;html=1;aspect=fixed;fillColor=light-dark(#000000,#FFFFFF);strokeColor=default;container=0;" parent="1" vertex="1">
          <mxGeometry x="568" y="300" width="10" height="10" as="geometry" />
        </mxCell>
        <mxCell id="GTgxMWZff30Q3cKS9bnM-94" value="" style="endArrow=none;html=1;rounded=0;entryX=0.5;entryY=1;entryDx=0;entryDy=0;" parent="1" target="GTgxMWZff30Q3cKS9bnM-93" edge="1">
          <mxGeometry width="50" height="50" relative="1" as="geometry">
            <mxPoint x="573" y="330" as="sourcePoint" />
            <mxPoint x="643" y="310" as="targetPoint" />
          </mxGeometry>
        </mxCell>
        <mxCell id="GTgxMWZff30Q3cKS9bnM-95" value="" style="ellipse;whiteSpace=wrap;html=1;aspect=fixed;fillColor=#FFFFFF;strokeColor=default;container=0;" parent="1" vertex="1">
          <mxGeometry x="638" y="300" width="10" height="10" as="geometry" />
        </mxCell>
        <mxCell id="GTgxMWZff30Q3cKS9bnM-96" value="" style="endArrow=none;html=1;rounded=0;entryX=0.5;entryY=1;entryDx=0;entryDy=0;" parent="1" target="GTgxMWZff30Q3cKS9bnM-95" edge="1">
          <mxGeometry width="50" height="50" relative="1" as="geometry">
            <mxPoint x="643" y="330" as="sourcePoint" />
            <mxPoint x="713" y="310" as="targetPoint" />
          </mxGeometry>
        </mxCell>
        <mxCell id="GTgxMWZff30Q3cKS9bnM-97" value="Nome" style="text;html=1;align=center;verticalAlign=middle;resizable=0;points=[];autosize=1;strokeColor=none;fillColor=none;container=0;" parent="1" vertex="1">
          <mxGeometry x="643" y="289" width="60" height="30" as="geometry" />
        </mxCell>
        <mxCell id="GTgxMWZff30Q3cKS9bnM-98" value="" style="endArrow=none;html=1;rounded=0;entryX=1;entryY=0.5;entryDx=0;entryDy=0;exitX=0;exitY=0.5;exitDx=0;exitDy=0;" parent="1" target="GTgxMWZff30Q3cKS9bnM-99" edge="1">
          <mxGeometry width="50" height="50" relative="1" as="geometry">
            <mxPoint x="558" y="350" as="sourcePoint" />
            <mxPoint x="603" y="341" as="targetPoint" />
          </mxGeometry>
        </mxCell>
        <mxCell id="GTgxMWZff30Q3cKS9bnM-99" value="" style="ellipse;whiteSpace=wrap;html=1;aspect=fixed;fillColor=#FFFFFF;strokeColor=default;container=0;" parent="1" vertex="1">
          <mxGeometry x="528" y="345" width="10" height="10" as="geometry" />
        </mxCell>
        <mxCell id="GTgxMWZff30Q3cKS9bnM-100" value="" style="endArrow=none;html=1;rounded=0;entryX=1;entryY=0.5;entryDx=0;entryDy=0;" parent="1" edge="1">
          <mxGeometry width="50" height="50" relative="1" as="geometry">
            <mxPoint x="543" y="345" as="sourcePoint" />
            <mxPoint x="543" y="355" as="targetPoint" />
          </mxGeometry>
        </mxCell>
        <mxCell id="GTgxMWZff30Q3cKS9bnM-101" value="Sede" style="text;html=1;align=center;verticalAlign=middle;resizable=0;points=[];autosize=1;strokeColor=none;fillColor=none;container=0;" parent="1" vertex="1">
          <mxGeometry x="482" y="334" width="50" height="30" as="geometry" />
        </mxCell>
        <mxCell id="GTgxMWZff30Q3cKS9bnM-102" value="" style="group" parent="1" vertex="1" connectable="0">
          <mxGeometry x="338" y="364" width="190" height="99" as="geometry" />
        </mxCell>
        <mxCell id="GTgxMWZff30Q3cKS9bnM-103" value="CONTATTI" style="ellipse;whiteSpace=wrap;html=1;fillColor=default;container=0;" parent="GTgxMWZff30Q3cKS9bnM-102" vertex="1">
          <mxGeometry x="90" y="29" width="100" height="40" as="geometry" />
        </mxCell>
        <mxCell id="GTgxMWZff30Q3cKS9bnM-104" value="" style="endArrow=none;html=1;rounded=0;entryX=0;entryY=0;entryDx=0;entryDy=0;exitX=1;exitY=0;exitDx=0;exitDy=0;" parent="GTgxMWZff30Q3cKS9bnM-102" source="GTgxMWZff30Q3cKS9bnM-109" target="GTgxMWZff30Q3cKS9bnM-103" edge="1">
          <mxGeometry width="50" height="50" relative="1" as="geometry">
            <mxPoint x="145" y="19" as="sourcePoint" />
            <mxPoint x="145" y="39" as="targetPoint" />
          </mxGeometry>
        </mxCell>
        <mxCell id="GTgxMWZff30Q3cKS9bnM-105" value="" style="ellipse;whiteSpace=wrap;html=1;aspect=fixed;fillColor=none;strokeColor=default;direction=south;container=0;" parent="GTgxMWZff30Q3cKS9bnM-102" vertex="1">
          <mxGeometry x="70" y="79" width="10" height="10" as="geometry" />
        </mxCell>
        <mxCell id="GTgxMWZff30Q3cKS9bnM-106" value="" style="endArrow=none;html=1;rounded=0;entryX=0;entryY=1;entryDx=0;entryDy=0;exitX=0;exitY=0;exitDx=0;exitDy=0;" parent="GTgxMWZff30Q3cKS9bnM-102" source="GTgxMWZff30Q3cKS9bnM-105" target="GTgxMWZff30Q3cKS9bnM-103" edge="1">
          <mxGeometry width="50" height="50" relative="1" as="geometry">
            <mxPoint x="185" y="40" as="sourcePoint" />
            <mxPoint x="115" y="60" as="targetPoint" />
            <Array as="points" />
          </mxGeometry>
        </mxCell>
        <mxCell id="GTgxMWZff30Q3cKS9bnM-107" value="Email" style="text;html=1;align=center;verticalAlign=middle;resizable=0;points=[];autosize=1;strokeColor=none;fillColor=none;container=0;" parent="GTgxMWZff30Q3cKS9bnM-102" vertex="1">
          <mxGeometry x="20" width="50" height="30" as="geometry" />
        </mxCell>
        <mxCell id="GTgxMWZff30Q3cKS9bnM-108" value="Telefono" style="text;html=1;align=center;verticalAlign=middle;resizable=0;points=[];autosize=1;strokeColor=none;fillColor=none;container=0;" parent="GTgxMWZff30Q3cKS9bnM-102" vertex="1">
          <mxGeometry y="69" width="70" height="30" as="geometry" />
        </mxCell>
        <mxCell id="GTgxMWZff30Q3cKS9bnM-109" value="" style="ellipse;whiteSpace=wrap;html=1;aspect=fixed;fillColor=none;strokeColor=default;direction=south;container=0;" parent="GTgxMWZff30Q3cKS9bnM-102" vertex="1">
          <mxGeometry x="70" y="10" width="10" height="10" as="geometry" />
        </mxCell>
        <mxCell id="GTgxMWZff30Q3cKS9bnM-110" value="" style="endArrow=none;html=1;rounded=0;entryX=1;entryY=0.5;entryDx=0;entryDy=0;exitX=0;exitY=1;exitDx=0;exitDy=0;" parent="1" target="GTgxMWZff30Q3cKS9bnM-103" edge="1">
          <mxGeometry width="50" height="50" relative="1" as="geometry">
            <mxPoint x="558" y="370" as="sourcePoint" />
            <mxPoint x="453" y="409" as="targetPoint" />
          </mxGeometry>
        </mxCell>
        <mxCell id="GTgxMWZff30Q3cKS9bnM-111" value="" style="ellipse;whiteSpace=wrap;html=1;aspect=fixed;fillColor=#000000;strokeColor=default;container=0;" parent="1" vertex="1">
          <mxGeometry x="528" y="505.5" width="10" height="10" as="geometry" />
        </mxCell>
        <mxCell id="GTgxMWZff30Q3cKS9bnM-112" value="" style="endArrow=none;html=1;rounded=0;fontFamily=Helvetica;fontSize=12;fontColor=default;entryX=0;entryY=0.5;entryDx=0;entryDy=0;" parent="1" edge="1">
          <mxGeometry width="50" height="50" relative="1" as="geometry">
            <mxPoint x="538" y="510.5" as="sourcePoint" />
            <mxPoint x="558" y="510.5" as="targetPoint" />
          </mxGeometry>
        </mxCell>
        <mxCell id="GTgxMWZff30Q3cKS9bnM-113" value="ID_Team" style="text;html=1;align=center;verticalAlign=middle;whiteSpace=wrap;rounded=0;fontFamily=Helvetica;fontSize=12;fontColor=default;" parent="1" vertex="1">
          <mxGeometry x="468" y="495.5" width="60" height="30" as="geometry" />
        </mxCell>
        <mxCell id="GTgxMWZff30Q3cKS9bnM-114" value="" style="endArrow=none;html=1;rounded=0;fontFamily=Helvetica;fontSize=12;fontColor=default;" parent="1" edge="1">
          <mxGeometry width="50" height="50" relative="1" as="geometry">
            <mxPoint x="608" y="550.5" as="sourcePoint" />
            <mxPoint x="608" y="530.5" as="targetPoint" />
          </mxGeometry>
        </mxCell>
        <mxCell id="GTgxMWZff30Q3cKS9bnM-115" value="" style="ellipse;whiteSpace=wrap;html=1;aspect=fixed;fillColor=none;strokeColor=default;container=0;" parent="1" vertex="1">
          <mxGeometry x="603" y="550.5" width="10" height="10" as="geometry" />
        </mxCell>
        <mxCell id="GTgxMWZff30Q3cKS9bnM-116" value="Numero&lt;div&gt;membri&lt;/div&gt;" style="text;html=1;align=center;verticalAlign=middle;whiteSpace=wrap;rounded=0;fontFamily=Helvetica;fontSize=12;fontColor=default;" parent="1" vertex="1">
          <mxGeometry x="578" y="560.5" width="60" height="30" as="geometry" />
        </mxCell>
        <mxCell id="GTgxMWZff30Q3cKS9bnM-117" value="TEAM" style="rounded=0;whiteSpace=wrap;html=1;fillColor=#CCE5FF;strokeColor=#66B2FF;" parent="1" vertex="1">
          <mxGeometry x="558" y="490" width="100" height="40" as="geometry" />
        </mxCell>
        <mxCell id="GTgxMWZff30Q3cKS9bnM-118" value="INSTALLATORE" style="rounded=0;whiteSpace=wrap;html=1;fillColor=#CCE5FF;strokeColor=#66B2FF;" parent="1" vertex="1">
          <mxGeometry x="558" y="330" width="100" height="40" as="geometry" />
        </mxCell>
        <mxCell id="GTgxMWZff30Q3cKS9bnM-119" value="" style="endArrow=none;html=1;rounded=0;entryX=1;entryY=0.5;entryDx=0;entryDy=0;exitX=0;exitY=0.5;exitDx=0;exitDy=0;" parent="1" source="GTgxMWZff30Q3cKS9bnM-130" target="GTgxMWZff30Q3cKS9bnM-132" edge="1">
          <mxGeometry width="50" height="50" relative="1" as="geometry">
            <mxPoint x="648" y="350" as="sourcePoint" />
            <mxPoint x="698" y="300" as="targetPoint" />
          </mxGeometry>
        </mxCell>
        <mxCell id="GTgxMWZff30Q3cKS9bnM-120" value="" style="ellipse;whiteSpace=wrap;html=1;aspect=fixed;fillColor=#FFFFFF;strokeColor=default;container=0;" parent="1" vertex="1">
          <mxGeometry x="438" y="220" width="10" height="10" as="geometry" />
        </mxCell>
        <mxCell id="GTgxMWZff30Q3cKS9bnM-121" value="" style="endArrow=none;html=1;rounded=0;entryX=0.5;entryY=1;entryDx=0;entryDy=0;" parent="1" target="GTgxMWZff30Q3cKS9bnM-120" edge="1">
          <mxGeometry width="50" height="50" relative="1" as="geometry">
            <mxPoint x="443" y="250" as="sourcePoint" />
            <mxPoint x="513" y="230" as="targetPoint" />
          </mxGeometry>
        </mxCell>
        <mxCell id="GTgxMWZff30Q3cKS9bnM-122" value="" style="ellipse;whiteSpace=wrap;html=1;aspect=fixed;fillColor=#FFFFFF;strokeColor=default;container=0;" parent="1" vertex="1">
          <mxGeometry x="488" y="220" width="10" height="10" as="geometry" />
        </mxCell>
        <mxCell id="GTgxMWZff30Q3cKS9bnM-123" value="" style="endArrow=none;html=1;rounded=0;entryX=0.5;entryY=1;entryDx=0;entryDy=0;" parent="1" target="GTgxMWZff30Q3cKS9bnM-122" edge="1">
          <mxGeometry width="50" height="50" relative="1" as="geometry">
            <mxPoint x="493" y="250" as="sourcePoint" />
            <mxPoint x="563" y="230" as="targetPoint" />
          </mxGeometry>
        </mxCell>
        <mxCell id="GTgxMWZff30Q3cKS9bnM-124" value="" style="ellipse;whiteSpace=wrap;html=1;aspect=fixed;fillColor=#FFFFFF;strokeColor=default;container=0;" parent="1" vertex="1">
          <mxGeometry x="388.5" y="265" width="10" height="10" as="geometry" />
        </mxCell>
        <mxCell id="GTgxMWZff30Q3cKS9bnM-125" value="" style="endArrow=none;html=1;rounded=0;exitX=0;exitY=0.5;exitDx=0;exitDy=0;" parent="1" source="GTgxMWZff30Q3cKS9bnM-132" edge="1">
          <mxGeometry width="50" height="50" relative="1" as="geometry">
            <mxPoint x="383" y="275" as="sourcePoint" />
            <mxPoint x="398" y="270" as="targetPoint" />
          </mxGeometry>
        </mxCell>
        <mxCell id="GTgxMWZff30Q3cKS9bnM-126" value="Orario inizio" style="text;html=1;align=center;verticalAlign=middle;resizable=0;points=[];autosize=1;strokeColor=none;fillColor=none;container=0;" parent="1" vertex="1">
          <mxGeometry x="358" y="190" width="90" height="30" as="geometry" />
        </mxCell>
        <mxCell id="GTgxMWZff30Q3cKS9bnM-127" value="Orario fine" style="text;html=1;align=center;verticalAlign=middle;resizable=0;points=[];autosize=1;strokeColor=none;fillColor=none;container=0;" parent="1" vertex="1">
          <mxGeometry x="483" y="190" width="80" height="30" as="geometry" />
        </mxCell>
        <mxCell id="GTgxMWZff30Q3cKS9bnM-128" value="ID_Team" style="text;html=1;align=center;verticalAlign=middle;resizable=0;points=[];autosize=1;strokeColor=none;fillColor=none;container=0;" parent="1" vertex="1">
          <mxGeometry x="320" y="255" width="70" height="30" as="geometry" />
        </mxCell>
        <mxCell id="GTgxMWZff30Q3cKS9bnM-129" value="" style="endArrow=none;html=1;rounded=0;entryX=1;entryY=0.5;entryDx=0;entryDy=0;" parent="1" edge="1">
          <mxGeometry width="50" height="50" relative="1" as="geometry">
            <mxPoint x="403.8499999999999" y="265" as="sourcePoint" />
            <mxPoint x="403.8499999999999" y="275" as="targetPoint" />
          </mxGeometry>
        </mxCell>
        <mxCell id="GTgxMWZff30Q3cKS9bnM-130" value="RISPETTA" style="rhombus;whiteSpace=wrap;html=1;fillColor=#FFFFCC;strokeColor=#FFCC99;" parent="1" vertex="1">
          <mxGeometry x="558" y="250" width="100" height="40" as="geometry" />
        </mxCell>
        <mxCell id="GTgxMWZff30Q3cKS9bnM-131" value="(1,1)" style="text;html=1;align=center;verticalAlign=middle;whiteSpace=wrap;rounded=0;fontColor=#FF3333;" parent="1" vertex="1">
          <mxGeometry x="503" y="245" width="60" height="30" as="geometry" />
        </mxCell>
        <mxCell id="GTgxMWZff30Q3cKS9bnM-132" value="&lt;div&gt;PROGRAMMA&lt;/div&gt;" style="rounded=0;whiteSpace=wrap;html=1;fillColor=#CCE5FF;strokeColor=#66B2FF;" parent="1" vertex="1">
          <mxGeometry x="418" y="250" width="100" height="40" as="geometry" />
        </mxCell>
        <mxCell id="GTgxMWZff30Q3cKS9bnM-133" value="" style="endArrow=none;html=1;rounded=0;exitX=1;exitY=0.5;exitDx=0;exitDy=0;entryX=0;entryY=0;entryDx=0;entryDy=0;" parent="1" source="GTgxMWZff30Q3cKS9bnM-158" target="GTgxMWZff30Q3cKS9bnM-144" edge="1">
          <mxGeometry width="50" height="50" relative="1" as="geometry">
            <mxPoint x="1068" y="701" as="sourcePoint" />
            <mxPoint x="1117.9999999999998" y="651" as="targetPoint" />
          </mxGeometry>
        </mxCell>
        <mxCell id="GTgxMWZff30Q3cKS9bnM-134" value="EFFETTUA" style="rhombus;whiteSpace=wrap;html=1;fillColor=#FFFFCC;strokeColor=#FFCC99;container=0;" parent="1" vertex="1">
          <mxGeometry x="1117.9999999999998" y="585" width="100" height="40" as="geometry" />
        </mxCell>
        <mxCell id="GTgxMWZff30Q3cKS9bnM-135" value="PRIVATO" style="rounded=0;whiteSpace=wrap;html=1;fillColor=#CCE5FF;strokeColor=#66B2FF;container=0;" parent="1" vertex="1">
          <mxGeometry x="1058" y="774" width="100" height="40" as="geometry" />
        </mxCell>
        <mxCell id="GTgxMWZff30Q3cKS9bnM-136" value="PUBBLICO" style="rounded=0;whiteSpace=wrap;html=1;fillColor=#CCE5FF;strokeColor=#66B2FF;container=0;" parent="1" vertex="1">
          <mxGeometry x="1177.9999999999998" y="774" width="100" height="40" as="geometry" />
        </mxCell>
        <mxCell id="GTgxMWZff30Q3cKS9bnM-137" value="" style="strokeWidth=2;html=1;shape=mxgraph.flowchart.annotation_2;align=left;labelPosition=right;pointerEvents=1;rotation=90;container=0;" parent="1" vertex="1">
          <mxGeometry x="1142.9999999999998" y="699" width="50" height="100" as="geometry" />
        </mxCell>
        <mxCell id="GTgxMWZff30Q3cKS9bnM-138" value="" style="ellipse;whiteSpace=wrap;html=1;aspect=fixed;fillColor=light-dark(#000000,#FFFFFF);strokeColor=default;rotation=-135;container=0;" parent="1" vertex="1">
          <mxGeometry x="1088" y="699" width="10" height="10" as="geometry" />
        </mxCell>
        <mxCell id="GTgxMWZff30Q3cKS9bnM-139" value="" style="endArrow=none;html=1;rounded=0;entryX=0;entryY=1;entryDx=0;entryDy=0;fillColor=light-dark(#000000,#FFFFFF);exitX=0;exitY=0.5;exitDx=0;exitDy=0;" parent="1" source="GTgxMWZff30Q3cKS9bnM-144" target="GTgxMWZff30Q3cKS9bnM-138" edge="1">
          <mxGeometry width="50" height="50" relative="1" as="geometry">
            <mxPoint x="1120.4999999999998" y="725" as="sourcePoint" />
            <mxPoint x="1056.5" y="689" as="targetPoint" />
          </mxGeometry>
        </mxCell>
        <mxCell id="GTgxMWZff30Q3cKS9bnM-140" value="ID_Cliente" style="text;html=1;align=center;verticalAlign=middle;resizable=0;points=[];autosize=1;strokeColor=none;fillColor=none;container=0;" parent="1" vertex="1">
          <mxGeometry x="1023" y="702" width="80" height="30" as="geometry" />
        </mxCell>
        <mxCell id="GTgxMWZff30Q3cKS9bnM-141" value="Ragione&lt;br&gt;sociale" style="text;html=1;align=center;verticalAlign=middle;resizable=0;points=[];autosize=1;strokeColor=none;fillColor=none;container=0;" parent="1" vertex="1">
          <mxGeometry x="1236.9999999999998" y="626" width="70" height="40" as="geometry" />
        </mxCell>
        <mxCell id="GTgxMWZff30Q3cKS9bnM-142" value="Tipo cliente" style="text;html=1;align=center;verticalAlign=middle;resizable=0;points=[];autosize=1;strokeColor=none;fillColor=none;container=0;" parent="1" vertex="1">
          <mxGeometry x="1243.9999999999998" y="706" width="80" height="30" as="geometry" />
        </mxCell>
        <mxCell id="GTgxMWZff30Q3cKS9bnM-143" value="Codice&lt;br&gt;fiscale" style="text;html=1;align=center;verticalAlign=middle;resizable=0;points=[];autosize=1;strokeColor=none;fillColor=none;container=0;" parent="1" vertex="1">
          <mxGeometry x="1240.9999999999998" y="666" width="60" height="40" as="geometry" />
        </mxCell>
        <mxCell id="GTgxMWZff30Q3cKS9bnM-144" value="CLIENTE" style="rounded=0;whiteSpace=wrap;html=1;fillColor=#CCE5FF;strokeColor=#66B2FF;container=0;" parent="1" vertex="1">
          <mxGeometry x="1117.9999999999998" y="684" width="100" height="40" as="geometry" />
        </mxCell>
        <mxCell id="GTgxMWZff30Q3cKS9bnM-145" value="" style="ellipse;whiteSpace=wrap;html=1;aspect=fixed;fillColor=#FFFFFF;strokeColor=default;container=0;" parent="1" vertex="1">
          <mxGeometry x="1237.9999999999998" y="744" width="10" height="10" as="geometry" />
        </mxCell>
        <mxCell id="GTgxMWZff30Q3cKS9bnM-146" value="" style="endArrow=none;html=1;rounded=0;entryX=0;entryY=0;entryDx=0;entryDy=0;exitX=1;exitY=1;exitDx=0;exitDy=0;" parent="1" source="GTgxMWZff30Q3cKS9bnM-144" target="GTgxMWZff30Q3cKS9bnM-145" edge="1">
          <mxGeometry width="50" height="50" relative="1" as="geometry">
            <mxPoint x="1202.9999999999998" y="685" as="sourcePoint" />
            <mxPoint x="1272.9999999999998" y="665" as="targetPoint" />
          </mxGeometry>
        </mxCell>
        <mxCell id="GTgxMWZff30Q3cKS9bnM-147" value="Partita&lt;br&gt;IVA" style="text;html=1;align=center;verticalAlign=middle;resizable=0;points=[];autosize=1;strokeColor=none;fillColor=none;container=0;" parent="1" vertex="1">
          <mxGeometry x="1239.9999999999998" y="732" width="60" height="40" as="geometry" />
        </mxCell>
        <mxCell id="GTgxMWZff30Q3cKS9bnM-148" value="" style="ellipse;whiteSpace=wrap;html=1;aspect=fixed;fillColor=#FFFFFF;strokeColor=default;rotation=-180;container=0;" parent="1" vertex="1">
          <mxGeometry x="1238.32" y="689.3248387096774" width="9.67741935483871" height="9.67741935483871" as="geometry" />
        </mxCell>
        <mxCell id="GTgxMWZff30Q3cKS9bnM-149" value="" style="endArrow=none;html=1;rounded=0;" parent="1" edge="1">
          <mxGeometry width="50" height="50" relative="1" as="geometry">
            <mxPoint x="1217.9999999999998" y="694.0900000000001" as="sourcePoint" />
            <mxPoint x="1237.9999999999998" y="694.0900000000001" as="targetPoint" />
          </mxGeometry>
        </mxCell>
        <mxCell id="GTgxMWZff30Q3cKS9bnM-150" value="" style="ellipse;whiteSpace=wrap;html=1;aspect=fixed;fillColor=#FFFFFF;strokeColor=default;rotation=-180;container=0;" parent="1" vertex="1">
          <mxGeometry x="1238.32" y="709.3248387096774" width="9.67741935483871" height="9.67741935483871" as="geometry" />
        </mxCell>
        <mxCell id="GTgxMWZff30Q3cKS9bnM-151" value="" style="endArrow=none;html=1;rounded=0;" parent="1" edge="1">
          <mxGeometry width="50" height="50" relative="1" as="geometry">
            <mxPoint x="1217.9999999999998" y="714.0900000000001" as="sourcePoint" />
            <mxPoint x="1237.9999999999998" y="714.0900000000001" as="targetPoint" />
          </mxGeometry>
        </mxCell>
        <mxCell id="GTgxMWZff30Q3cKS9bnM-152" value="" style="endArrow=none;html=1;rounded=0;entryX=0.5;entryY=1;entryDx=0;entryDy=0;exitX=0.5;exitY=0;exitDx=0;exitDy=0;" parent="1" source="GTgxMWZff30Q3cKS9bnM-144" target="GTgxMWZff30Q3cKS9bnM-134" edge="1">
          <mxGeometry width="50" height="50" relative="1" as="geometry">
            <mxPoint x="1147.9999999999998" y="625" as="sourcePoint" />
            <mxPoint x="1197.9999999999998" y="575" as="targetPoint" />
          </mxGeometry>
        </mxCell>
        <mxCell id="GTgxMWZff30Q3cKS9bnM-153" value="(t,e)" style="text;html=1;align=center;verticalAlign=middle;whiteSpace=wrap;rounded=0;labelBackgroundColor=none;fontColor=#FF3333;" parent="1" vertex="1">
          <mxGeometry x="1156.9999999999998" y="720" width="60" height="30" as="geometry" />
        </mxCell>
        <mxCell id="GTgxMWZff30Q3cKS9bnM-154" value="" style="endArrow=none;html=1;rounded=0;" parent="1" target="GTgxMWZff30Q3cKS9bnM-155" edge="1">
          <mxGeometry width="50" height="50" relative="1" as="geometry">
            <mxPoint x="1217.9999999999998" y="685" as="sourcePoint" />
            <mxPoint x="1237.9999999999998" y="665" as="targetPoint" />
          </mxGeometry>
        </mxCell>
        <mxCell id="GTgxMWZff30Q3cKS9bnM-155" value="" style="ellipse;whiteSpace=wrap;html=1;aspect=fixed;fillColor=#FFFFFF;strokeColor=default;container=0;" parent="1" vertex="1">
          <mxGeometry x="1238.16" y="654" width="10" height="10" as="geometry" />
        </mxCell>
        <mxCell id="GTgxMWZff30Q3cKS9bnM-156" value="(1,N)" style="text;html=1;align=center;verticalAlign=middle;whiteSpace=wrap;rounded=0;labelBackgroundColor=none;fontColor=#FF3333;" parent="1" vertex="1">
          <mxGeometry x="1156.9999999999998" y="659.3199999999999" width="60" height="30" as="geometry" />
        </mxCell>
        <mxCell id="GTgxMWZff30Q3cKS9bnM-157" value="" style="group" parent="1" vertex="1" connectable="0">
          <mxGeometry x="908" y="567" width="190" height="99" as="geometry" />
        </mxCell>
        <mxCell id="GTgxMWZff30Q3cKS9bnM-158" value="CONTATTI" style="ellipse;whiteSpace=wrap;html=1;fillColor=default;container=0;" parent="GTgxMWZff30Q3cKS9bnM-157" vertex="1">
          <mxGeometry x="90" y="29" width="100" height="40" as="geometry" />
        </mxCell>
        <mxCell id="GTgxMWZff30Q3cKS9bnM-159" value="" style="endArrow=none;html=1;rounded=0;entryX=0;entryY=0;entryDx=0;entryDy=0;exitX=1;exitY=0;exitDx=0;exitDy=0;" parent="GTgxMWZff30Q3cKS9bnM-157" source="GTgxMWZff30Q3cKS9bnM-162" target="GTgxMWZff30Q3cKS9bnM-158" edge="1">
          <mxGeometry width="50" height="50" relative="1" as="geometry">
            <mxPoint x="145" y="19" as="sourcePoint" />
            <mxPoint x="145" y="39" as="targetPoint" />
          </mxGeometry>
        </mxCell>
        <mxCell id="GTgxMWZff30Q3cKS9bnM-160" value="" style="ellipse;whiteSpace=wrap;html=1;aspect=fixed;fillColor=none;strokeColor=default;direction=south;container=0;" parent="GTgxMWZff30Q3cKS9bnM-157" vertex="1">
          <mxGeometry x="72" y="67" width="10" height="10" as="geometry" />
        </mxCell>
        <mxCell id="GTgxMWZff30Q3cKS9bnM-161" value="" style="endArrow=none;html=1;rounded=0;entryX=0;entryY=1;entryDx=0;entryDy=0;exitX=0;exitY=0;exitDx=0;exitDy=0;" parent="GTgxMWZff30Q3cKS9bnM-157" source="GTgxMWZff30Q3cKS9bnM-160" target="GTgxMWZff30Q3cKS9bnM-158" edge="1">
          <mxGeometry width="50" height="50" relative="1" as="geometry">
            <mxPoint x="82" y="67" as="sourcePoint" />
            <mxPoint x="115" y="60" as="targetPoint" />
            <Array as="points" />
          </mxGeometry>
        </mxCell>
        <mxCell id="GTgxMWZff30Q3cKS9bnM-162" value="" style="ellipse;whiteSpace=wrap;html=1;aspect=fixed;fillColor=none;strokeColor=default;direction=south;container=0;" parent="GTgxMWZff30Q3cKS9bnM-157" vertex="1">
          <mxGeometry x="72" y="17" width="10" height="10" as="geometry" />
        </mxCell>
        <mxCell id="GTgxMWZff30Q3cKS9bnM-163" value="Telefono" style="text;html=1;align=center;verticalAlign=middle;resizable=0;points=[];autosize=1;strokeColor=none;fillColor=none;container=0;" parent="GTgxMWZff30Q3cKS9bnM-157" vertex="1">
          <mxGeometry x="12" y="47" width="70" height="30" as="geometry" />
        </mxCell>
        <mxCell id="GTgxMWZff30Q3cKS9bnM-164" value="Email" style="text;html=1;align=center;verticalAlign=middle;resizable=0;points=[];autosize=1;strokeColor=none;fillColor=none;container=0;" parent="GTgxMWZff30Q3cKS9bnM-157" vertex="1">
          <mxGeometry x="50" y="-13" width="50" height="30" as="geometry" />
        </mxCell>
        <mxCell id="GTgxMWZff30Q3cKS9bnM-165" value="MODELLO" style="rounded=0;whiteSpace=wrap;html=1;fillColor=#CCE5FF;strokeColor=#66B2FF;" parent="1" vertex="1">
          <mxGeometry x="839" y="665.1600000000001" width="100" height="40" as="geometry" />
        </mxCell>
        <mxCell id="GTgxMWZff30Q3cKS9bnM-166" value="Dimensioni" style="text;html=1;align=center;verticalAlign=middle;resizable=0;points=[];autosize=1;strokeColor=none;fillColor=none;container=0;" parent="1" vertex="1">
          <mxGeometry x="793" y="733.1600000000001" width="80" height="30" as="geometry" />
        </mxCell>
        <mxCell id="GTgxMWZff30Q3cKS9bnM-167" value="Peso" style="text;html=1;align=center;verticalAlign=middle;resizable=0;points=[];autosize=1;strokeColor=none;fillColor=none;container=0;" parent="1" vertex="1">
          <mxGeometry x="913" y="732.1600000000001" width="50" height="30" as="geometry" />
        </mxCell>
        <mxCell id="GTgxMWZff30Q3cKS9bnM-168" value="" style="ellipse;whiteSpace=wrap;html=1;aspect=fixed;fillColor=#FFFFFF;strokeColor=default;rotation=-180;container=0;" parent="1" vertex="1">
          <mxGeometry x="919" y="725.1600000000001" width="10" height="10" as="geometry" />
        </mxCell>
        <mxCell id="GTgxMWZff30Q3cKS9bnM-169" value="" style="endArrow=none;html=1;rounded=0;entryX=0.5;entryY=1;entryDx=0;entryDy=0;" parent="1" edge="1">
          <mxGeometry width="50" height="50" relative="1" as="geometry">
            <mxPoint x="924" y="705.1600000000001" as="sourcePoint" />
            <mxPoint x="924" y="725.1600000000001" as="targetPoint" />
          </mxGeometry>
        </mxCell>
        <mxCell id="GTgxMWZff30Q3cKS9bnM-170" value="" style="endArrow=none;html=1;rounded=0;entryX=1;entryY=0.5;entryDx=0;entryDy=0;exitX=1;exitY=0.5;exitDx=0;exitDy=0;" parent="1" target="GTgxMWZff30Q3cKS9bnM-171" edge="1">
          <mxGeometry width="50" height="50" relative="1" as="geometry">
            <mxPoint x="939" y="685.1600000000001" as="sourcePoint" />
            <mxPoint x="974" y="695.1600000000001" as="targetPoint" />
          </mxGeometry>
        </mxCell>
        <mxCell id="GTgxMWZff30Q3cKS9bnM-171" value="" style="ellipse;whiteSpace=wrap;html=1;aspect=fixed;fillColor=#FFFFFF;strokeColor=default;rotation=-180;container=0;" parent="1" vertex="1">
          <mxGeometry x="959" y="680.1600000000001" width="10" height="10" as="geometry" />
        </mxCell>
        <mxCell id="GTgxMWZff30Q3cKS9bnM-172" value="Velocità&lt;div&gt;massima&lt;/div&gt;" style="text;html=1;align=center;verticalAlign=middle;resizable=0;points=[];autosize=1;strokeColor=none;fillColor=none;container=0;" parent="1" vertex="1">
          <mxGeometry x="960" y="667.1600000000001" width="70" height="40" as="geometry" />
        </mxCell>
        <mxCell id="GTgxMWZff30Q3cKS9bnM-173" value="" style="ellipse;whiteSpace=wrap;html=1;aspect=fixed;fillColor=#FFFFFF;strokeColor=default;rotation=-180;container=0;" parent="1" vertex="1">
          <mxGeometry x="859" y="725.1600000000001" width="10" height="10" as="geometry" />
        </mxCell>
        <mxCell id="GTgxMWZff30Q3cKS9bnM-174" value="" style="endArrow=none;html=1;rounded=0;entryX=0.5;entryY=1;entryDx=0;entryDy=0;" parent="1" edge="1">
          <mxGeometry width="50" height="50" relative="1" as="geometry">
            <mxPoint x="864" y="705.1600000000001" as="sourcePoint" />
            <mxPoint x="864" y="725.1600000000001" as="targetPoint" />
          </mxGeometry>
        </mxCell>
        <mxCell id="GTgxMWZff30Q3cKS9bnM-175" value="" style="endArrow=none;html=1;rounded=0;exitX=1;exitY=1;exitDx=0;exitDy=0;" parent="1" edge="1">
          <mxGeometry width="50" height="50" relative="1" as="geometry">
            <mxPoint x="939" y="705.1600000000001" as="sourcePoint" />
            <mxPoint x="969" y="724.1600000000001" as="targetPoint" />
          </mxGeometry>
        </mxCell>
        <mxCell id="GTgxMWZff30Q3cKS9bnM-176" value="" style="ellipse;whiteSpace=wrap;html=1;aspect=fixed;fillColor=#000000;strokeColor=default;rotation=-180;container=0;" parent="1" vertex="1">
          <mxGeometry x="969" y="720.1600000000001" width="10" height="10" as="geometry" />
        </mxCell>
        <mxCell id="GTgxMWZff30Q3cKS9bnM-177" value="Codice" style="text;html=1;align=center;verticalAlign=middle;resizable=0;points=[];autosize=1;strokeColor=none;fillColor=none;container=0;" parent="1" vertex="1">
          <mxGeometry x="965" y="724" width="60" height="30" as="geometry" />
        </mxCell>
        <mxCell id="GTgxMWZff30Q3cKS9bnM-178" value="" style="endArrow=none;html=1;rounded=0;fontFamily=Helvetica;fontSize=12;fontColor=default;exitX=0.25;exitY=0;exitDx=0;exitDy=0;entryX=0.5;entryY=0;entryDx=0;entryDy=0;" parent="1" source="GTgxMWZff30Q3cKS9bnM-36" target="GTgxMWZff30Q3cKS9bnM-180" edge="1">
          <mxGeometry width="50" height="50" relative="1" as="geometry">
            <mxPoint x="908" y="480" as="sourcePoint" />
            <mxPoint x="863" y="470" as="targetPoint" />
          </mxGeometry>
        </mxCell>
        <mxCell id="GTgxMWZff30Q3cKS9bnM-179" value="" style="endArrow=none;html=1;rounded=0;fontFamily=Helvetica;fontSize=12;fontColor=default;exitX=0.849;exitY=-0.003;exitDx=0;exitDy=0;exitPerimeter=0;entryX=0.5;entryY=0;entryDx=0;entryDy=0;" parent="1" source="GTgxMWZff30Q3cKS9bnM-36" target="GTgxMWZff30Q3cKS9bnM-183" edge="1">
          <mxGeometry width="50" height="50" relative="1" as="geometry">
            <mxPoint x="922.8799999999999" y="490" as="sourcePoint" />
            <mxPoint x="922.8799999999999" y="470" as="targetPoint" />
          </mxGeometry>
        </mxCell>
        <mxCell id="GTgxMWZff30Q3cKS9bnM-180" value="" style="ellipse;whiteSpace=wrap;html=1;aspect=fixed;fillColor=none;strokeColor=default;rotation=-180;" parent="1" vertex="1">
          <mxGeometry x="858" y="460" width="10" height="10" as="geometry" />
        </mxCell>
        <mxCell id="GTgxMWZff30Q3cKS9bnM-183" value="" style="ellipse;whiteSpace=wrap;html=1;aspect=fixed;fillColor=none;strokeColor=default;rotation=-180;" parent="1" vertex="1">
          <mxGeometry x="918" y="460" width="10" height="10" as="geometry" />
        </mxCell>
        <mxCell id="GTgxMWZff30Q3cKS9bnM-184" value="ID_Installatore" style="text;html=1;align=center;verticalAlign=middle;whiteSpace=wrap;rounded=0;" parent="1" vertex="1">
          <mxGeometry x="808" y="440" width="60" height="20" as="geometry" />
        </mxCell>
        <mxCell id="GTgxMWZff30Q3cKS9bnM-185" value="ID_Produttore" style="text;html=1;align=center;verticalAlign=middle;whiteSpace=wrap;rounded=0;" parent="1" vertex="1">
          <mxGeometry x="920" y="440" width="60" height="20" as="geometry" />
        </mxCell>
        <mxCell id="GTgxMWZff30Q3cKS9bnM-186" value="" style="endArrow=none;html=1;rounded=0;fontFamily=Helvetica;fontSize=12;fontColor=default;" parent="1" edge="1">
          <mxGeometry width="50" height="50" relative="1" as="geometry">
            <mxPoint x="858" y="476.9200000000001" as="sourcePoint" />
            <mxPoint x="868" y="476.9200000000001" as="targetPoint" />
          </mxGeometry>
        </mxCell>
        <mxCell id="GTgxMWZff30Q3cKS9bnM-187" value="" style="endArrow=none;html=1;rounded=0;fontFamily=Helvetica;fontSize=12;fontColor=default;" parent="1" edge="1">
          <mxGeometry width="50" height="50" relative="1" as="geometry">
            <mxPoint x="918" y="476.9200000000001" as="sourcePoint" />
            <mxPoint x="928" y="476.9200000000001" as="targetPoint" />
          </mxGeometry>
        </mxCell>
        <mxCell id="S_Q8-7IiYQaeUKPHDEeC-2" value="" style="endArrow=none;html=1;rounded=0;" edge="1" parent="1">
          <mxGeometry width="50" height="50" relative="1" as="geometry">
            <mxPoint x="974" y="530" as="sourcePoint" />
            <mxPoint x="974" y="500" as="targetPoint" />
          </mxGeometry>
        </mxCell>
        <mxCell id="S_Q8-7IiYQaeUKPHDEeC-3" value="" style="ellipse;whiteSpace=wrap;html=1;aspect=fixed;fillColor=#000000;strokeColor=default;rotation=-180;" vertex="1" parent="1">
          <mxGeometry x="969" y="490" width="10" height="10" as="geometry" />
        </mxCell>
      </root>
    </mxGraphModel>
  </diagram>
</mxfile>
